<svg xmlns="http://www.w3.org/2000/svg" viewBox="0 0 820 220" role="img" aria-label="NEXO Ride by Astra Technologies"><defs><linearGradient id="g" x1="0" y1="0" x2="1" y2="1"><stop stop-color="#22d3ee"/><stop offset=".55" stop-color="#1d8cff"/><stop offset="1" stop-color="#7c3aed"/></linearGradient><filter id="glow"><feGaussianBlur stdDeviation="5" result="b"/><feMerge><feMergeNode in="b"/><feMergeNode in="SourceGraphic"/></feMerge></filter></defs><rect width="820" height="220" fill="none"/><g filter="url(#glow)"><path d="M58 176V42c0-14 11-25 25-25h36c13 0 24 7 32 17l70 98V42c0-14 11-25 25-25h32v134c0 14-11 25-25 25h-35c-13 0-24-6-32-17L116 61v115H58z" fill="url(#g)"/><g transform="translate(76 83)"><path d="M0 41h109c18 0 33 15 33 33v16H0z" fill="#071025" stroke="#baf2ff" stroke-width="5"/><path d="M18 6h76c21 0 37 17 37 38v4H0V24C0 14 8 6 18 6z" fill="#0b1733" stroke="#baf2ff" stroke-width="5"/><path d="M24 19h39v37H24zM74 19h31v37H74z" fill="#122a52" stroke="#22d3ee" stroke-width="3"/><path d="M131 51c19 2 31 17 31 39H131z" fill="#0d1740" stroke="#baf2ff" stroke-width="5"/><circle cx="36" cy="99" r="18" fill="#071025" stroke="#22d3ee" stroke-width="6"/><circle cx="127" cy="99" r="18" fill="#071025" stroke="#8b5cf6" stroke-width="6"/><circle cx="148" cy="64" r="7" fill="#fff"/><path d="M42 70l-10 20h14l-8 18 22-26H45l8-12z" fill="#22d3ee"/></g></g><g font-family="Arial, Helvetica, sans-serif" font-weight="900"><text x="330" y="111" font-size="74" fill="#f8fbff" letter-spacing="5">NE</text><text x="452" y="111" font-size="74" fill="url(#g)" letter-spacing="4">XO</text><text x="612" y="111" font-size="64" fill="#f8fbff" font-weight="500">Ride</text><line x1="330" y1="147" x2="430" y2="147" stroke="#22d3ee" stroke-width="3"/><text x="455" y="157" font-size="28" fill="#f8fbff" font-weight="400" letter-spacing="8">by Astra Technologies</text></g></svg>