<svg xmlns="http://www.w3.org/2000/svg" viewBox="0 0 512 512"><defs><linearGradient id="g" x1="0" y1="0" x2="1" y2="1"><stop stop-color="#22d3ee"/><stop offset=".55" stop-color="#1d8cff"/><stop offset="1" stop-color="#7c3aed"/></linearGradient></defs><rect width="512" height="512" rx="104" fill="#071025"/><path d="M86 416V96h82c31 0 56 13 74 38l111 157V96h74v320h-82c-31 0-56-13-74-38L160 221v195H86z" fill="url(#g)"/><g transform="translate(93 205)"><path d="M0 80h218c29 0 52 23 52 52v28H0z" fill="#071025" stroke="#baf2ff" stroke-width="10"/><path d="M31 0h141c42 0 76 34 76 76v8H0V34C0 15 15 0 31 0z" fill="#0b1733" stroke="#baf2ff" stroke-width="10"/><path d="M47 26h73v70H47zM140 26h57v70h-57z" fill="#122a52" stroke="#22d3ee" stroke-width="6"/><path d="M248 91c37 4 60 34 60 69h-60z" fill="#0d1740" stroke="#baf2ff" stroke-width="9"/><circle cx="68" cy="176" r="34" fill="#071025" stroke="#22d3ee" stroke-width="12"/><circle cx="239" cy="176" r="34" fill="#071025" stroke="#8b5cf6" stroke-width="12"/><circle cx="281" cy="116" r="12" fill="#fff"/><path d="M80 120l-22 40h31l-16 36 47-54H88l16-22z" fill="#22d3ee"/></g></svg>